<svg xmlns="http://www.w3.org/2000/svg" xmlns:xlink="http://www.w3.org/1999/xlink" width="500" zoomAndPan="magnify" viewBox="0 0 375 374.999991" height="500" preserveAspectRatio="xMidYMid meet" version="1.2"><defs><clipPath id="f6512e3e03"><path d="M 131.003906 101.257812 L 244.253906 101.257812 L 244.253906 214.496094 L 131.003906 214.496094 Z M 131.003906 101.257812 "/></clipPath></defs><g id="30e581ee8c"><g clip-rule="nonzero" clip-path="url(#f6512e3e03)"><path style=" stroke:none;fill-rule:nonzero;fill:#45b043;fill-opacity:1;" d="M 187.46875 101.246094 C 203.132812 101.246094 217.476562 107.746094 227.574219 117.847656 C 237.675781 128.265625 244.210938 142.265625 244.210938 157.871094 C 244.210938 173.476562 237.699219 187.472656 227.574219 197.894531 C 217.453125 207.996094 203.109375 214.496094 187.46875 214.496094 C 171.832031 214.496094 157.804688 207.996094 147.683594 197.894531 C 137.242188 187.472656 131.046875 173.5 131.046875 157.871094 C 131.046875 142.242188 137.242188 128.265625 147.683594 117.847656 C 157.78125 107.746094 171.808594 101.246094 187.46875 101.246094 Z M 186.152344 137.371094 C 186.472656 137.054688 186.472656 136.398438 186.472656 135.742188 C 188.421875 128.265625 190.714844 118.164062 206.355469 118.503906 C 207.648438 118.503906 208.644531 119.796875 208.644531 121.109375 C 208.644531 122.402344 208.328125 141.292969 188.421875 140.316406 C 187.128906 140.316406 186.132812 139.34375 186.132812 138.03125 C 186.152344 137.691406 186.152344 137.371094 186.152344 137.371094 Z M 203.449219 123.375 C 194.960938 124.03125 192.691406 130.214844 191.714844 135.425781 C 200.5 134.769531 203.109375 127.269531 203.449219 123.375 Z M 184.519531 155.582031 C 184.835938 155.898438 184.835938 156.238281 184.835938 156.558594 C 185.8125 162.421875 186.789062 168.265625 188.105469 173.476562 C 189.738281 160.136719 195.9375 143.535156 213.867188 138.324219 C 214.84375 137.667969 216.160156 138.324219 216.792969 139.613281 C 216.792969 139.613281 231.480469 173.453125 198.523438 184.191406 C 197.546875 184.507812 195.914062 183.875 195.59375 182.558594 C 195.277344 181.246094 195.914062 179.953125 197.230469 179.636719 C 220.378906 172.164062 215.5 150.351562 213.207031 143.511719 C 190.714844 151.640625 191.691406 182.898438 192.007812 189.058594 C 194.9375 197.191406 195.277344 205.003906 195.277344 208.902344 C 206.375 207.269531 216.476562 202.0625 224.308594 194.246094 C 233.429688 185.210938 239.308594 172.1875 239.308594 157.871094 C 239.308594 143.554688 233.429688 130.53125 224.308594 121.085938 C 214.84375 111.980469 201.816406 106.117188 187.449219 106.117188 C 173.082031 106.117188 160.390625 111.980469 150.929688 121.085938 C 141.484375 130.53125 135.609375 143.554688 135.609375 157.871094 C 135.609375 172.1875 141.484375 185.210938 150.929688 194.316406 C 160.390625 203.757812 173.101562 209.601562 187.449219 209.601562 C 188.421875 209.601562 189.398438 209.601562 190.375 209.601562 C 190.691406 206.34375 190.375 199.523438 188.082031 192.027344 C 187.765625 191.710938 187.425781 191.371094 187.425781 191.054688 C 187.425781 190.734375 187.105469 190.078125 187.105469 189.421875 C 183.203125 179.34375 174.714844 169.582031 156.785156 167.609375 C 157.441406 173.476562 161.027344 187.132812 184.496094 191.6875 C 185.789062 192.003906 186.449219 193.316406 186.132812 194.609375 C 186.132812 195.898438 184.835938 196.558594 183.519531 196.238281 C 149.953125 189.761719 152.246094 165.027344 152.246094 165.027344 C 152.246094 163.738281 153.21875 162.742188 154.535156 162.742188 C 168.222656 163.398438 177.371094 168.265625 183.566406 174.449219 C 182.273438 169.242188 180.957031 163.375 180.296875 157.214844 C 178.347656 152.660156 175.394531 148.109375 170.832031 144.847656 C 167.566406 142.558594 163.660156 140.953125 158.757812 140.613281 C 159.417969 145.164062 161.367188 154.609375 173.761719 154.609375 C 175.054688 154.609375 176.054688 155.582031 176.371094 156.898438 C 176.371094 158.1875 175.078125 159.183594 173.761719 159.183594 C 152.5625 159.839844 154.195312 138.03125 154.195312 138.03125 C 154.195312 136.738281 155.171875 135.742188 156.488281 135.742188 C 163.660156 135.742188 169.199219 137.691406 173.441406 140.953125 C 175.394531 142.242188 177.347656 143.875 178.664062 145.84375 C 178.003906 136.398438 178.347656 127.609375 180.296875 121.425781 C 180.957031 120.136719 182.25 119.480469 183.566406 119.796875 C 184.542969 120.113281 185.519531 121.425781 184.859375 122.71875 C 182.25 130.847656 182.886719 143.554688 184.519531 155.582031 Z M 184.519531 155.582031 "/></g><g style="fill:#000000;fill-opacity:1;"><g transform="translate(113.276101, 248.231057)"><path style="stroke:none" d=""/></g></g><g style="fill:#000000;fill-opacity:1;"><g transform="translate(123.858131, 248.231057)"><path style="stroke:none" d="M 14.578125 0 L 5.578125 -15.890625 C 5.753906 -14.347656 5.84375 -13.109375 5.84375 -12.171875 L 5.84375 0 L 2 0 L 2 -20.640625 L 6.9375 -20.640625 L 16.0625 -4.609375 C 15.894531 -6.085938 15.8125 -7.429688 15.8125 -8.640625 L 15.8125 -20.640625 L 19.640625 -20.640625 L 19.640625 0 Z M 14.578125 0 "/></g></g><g style="fill:#000000;fill-opacity:1;"><g transform="translate(147.7647, 248.231057)"><path style="stroke:none" d="M 16.59375 0 L 14.765625 -5.28125 L 6.90625 -5.28125 L 5.0625 0 L 0.75 0 L 8.28125 -20.640625 L 13.375 -20.640625 L 20.875 0 Z M 10.828125 -17.46875 L 10.734375 -17.140625 C 10.640625 -16.785156 10.523438 -16.382812 10.390625 -15.9375 C 10.253906 -15.488281 9.410156 -13.019531 7.859375 -8.53125 L 13.796875 -8.53125 L 11.765625 -14.453125 L 11.140625 -16.453125 Z M 10.828125 -17.46875 "/></g></g><g style="fill:#000000;fill-opacity:1;"><g transform="translate(171.671269, 248.231057)"><path style="stroke:none" d="M 11.328125 -17.296875 L 11.328125 0 L 7 0 L 7 -17.296875 L 0.34375 -17.296875 L 0.34375 -20.640625 L 18 -20.640625 L 18 -17.296875 Z M 11.328125 -17.296875 "/></g></g><g style="fill:#000000;fill-opacity:1;"><g transform="translate(192.239299, 248.231057)"><path style="stroke:none" d="M 10.59375 0.296875 C 7.75 0.296875 5.570312 -0.394531 4.0625 -1.78125 C 2.550781 -3.175781 1.796875 -5.160156 1.796875 -7.734375 L 1.796875 -20.640625 L 6.125 -20.640625 L 6.125 -8.078125 C 6.125 -6.441406 6.507812 -5.203125 7.28125 -4.359375 C 8.0625 -3.515625 9.203125 -3.09375 10.703125 -3.09375 C 12.242188 -3.09375 13.429688 -3.535156 14.265625 -4.421875 C 15.097656 -5.304688 15.515625 -6.570312 15.515625 -8.21875 L 15.515625 -20.640625 L 19.828125 -20.640625 L 19.828125 -7.953125 C 19.828125 -5.335938 19.019531 -3.304688 17.40625 -1.859375 C 15.789062 -0.421875 13.519531 0.296875 10.59375 0.296875 Z M 10.59375 0.296875 "/></g></g><g style="fill:#000000;fill-opacity:1;"><g transform="translate(216.145867, 248.231057)"><path style="stroke:none" d="M 16.1875 0 L 11.390625 -7.84375 L 6.328125 -7.84375 L 6.328125 0 L 2 0 L 2 -20.640625 L 12.3125 -20.640625 C 14.78125 -20.640625 16.679688 -20.109375 18.015625 -19.046875 C 19.359375 -17.992188 20.03125 -16.472656 20.03125 -14.484375 C 20.03125 -13.035156 19.617188 -11.785156 18.796875 -10.734375 C 17.972656 -9.691406 16.863281 -9.003906 15.46875 -8.671875 L 21.046875 0 Z M 15.671875 -14.3125 C 15.671875 -16.289062 14.398438 -17.28125 11.859375 -17.28125 L 6.328125 -17.28125 L 6.328125 -11.1875 L 11.984375 -11.1875 C 13.191406 -11.1875 14.109375 -11.457031 14.734375 -12 C 15.359375 -12.550781 15.671875 -13.320312 15.671875 -14.3125 Z M 15.671875 -14.3125 "/></g></g><g style="fill:#000000;fill-opacity:1;"><g transform="translate(240.052436, 248.231057)"><path style="stroke:none" d="M 16.59375 0 L 14.765625 -5.28125 L 6.90625 -5.28125 L 5.0625 0 L 0.75 0 L 8.28125 -20.640625 L 13.375 -20.640625 L 20.875 0 Z M 10.828125 -17.46875 L 10.734375 -17.140625 C 10.640625 -16.785156 10.523438 -16.382812 10.390625 -15.9375 C 10.253906 -15.488281 9.410156 -13.019531 7.859375 -8.53125 L 13.796875 -8.53125 L 11.765625 -14.453125 L 11.140625 -16.453125 Z M 10.828125 -17.46875 "/></g></g><g style="fill:#000000;fill-opacity:1;"><g transform="translate(171.146477, 269.693771)"><path style="stroke:none" d="M 7.453125 -2.28125 C 7.453125 -1.519531 7.15625 -0.925781 6.5625 -0.5 C 5.96875 -0.0820312 5.128906 0.125 4.046875 0.125 C 2.035156 0.125 0.867188 -0.578125 0.546875 -1.984375 L 1.625 -2.203125 C 1.75 -1.703125 2.015625 -1.332031 2.421875 -1.09375 C 2.828125 -0.863281 3.378906 -0.75 4.078125 -0.75 C 4.804688 -0.75 5.363281 -0.875 5.75 -1.125 C 6.144531 -1.375 6.34375 -1.738281 6.34375 -2.21875 C 6.34375 -2.488281 6.28125 -2.707031 6.15625 -2.875 C 6.039062 -3.039062 5.867188 -3.175781 5.640625 -3.28125 C 5.421875 -3.394531 5.15625 -3.488281 4.84375 -3.5625 C 4.539062 -3.644531 4.203125 -3.726562 3.828125 -3.8125 C 3.171875 -3.957031 2.671875 -4.097656 2.328125 -4.234375 C 1.992188 -4.378906 1.726562 -4.539062 1.53125 -4.71875 C 1.34375 -4.90625 1.195312 -5.113281 1.09375 -5.34375 C 0.988281 -5.582031 0.9375 -5.859375 0.9375 -6.171875 C 0.9375 -6.878906 1.207031 -7.421875 1.75 -7.796875 C 2.289062 -8.179688 3.0625 -8.375 4.0625 -8.375 C 5 -8.375 5.71875 -8.226562 6.21875 -7.9375 C 6.71875 -7.65625 7.066406 -7.171875 7.265625 -6.484375 L 6.15625 -6.28125 C 6.039062 -6.71875 5.8125 -7.035156 5.46875 -7.234375 C 5.125 -7.429688 4.65625 -7.53125 4.0625 -7.53125 C 3.394531 -7.53125 2.882812 -7.421875 2.53125 -7.203125 C 2.1875 -6.984375 2.015625 -6.660156 2.015625 -6.234375 C 2.015625 -5.972656 2.082031 -5.757812 2.21875 -5.59375 C 2.351562 -5.425781 2.546875 -5.285156 2.796875 -5.171875 C 3.054688 -5.054688 3.566406 -4.914062 4.328125 -4.75 C 4.578125 -4.695312 4.828125 -4.640625 5.078125 -4.578125 C 5.335938 -4.515625 5.582031 -4.441406 5.8125 -4.359375 C 6.039062 -4.273438 6.253906 -4.175781 6.453125 -4.0625 C 6.648438 -3.945312 6.820312 -3.804688 6.96875 -3.640625 C 7.125 -3.484375 7.242188 -3.289062 7.328125 -3.0625 C 7.410156 -2.84375 7.453125 -2.582031 7.453125 -2.28125 Z M 7.453125 -2.28125 "/></g><g transform="translate(179.150383, 269.693771)"><path style="stroke:none" d="M 1.109375 0 L 1.109375 -8.25 L 2.234375 -8.25 L 2.234375 0 Z M 1.109375 0 "/></g><g transform="translate(182.484367, 269.693771)"><path style="stroke:none" d="M 0.984375 0 L 0.984375 -8.25 L 2.109375 -8.25 L 2.109375 -0.921875 L 6.28125 -0.921875 L 6.28125 0 Z M 0.984375 0 "/></g><g transform="translate(189.158195, 269.693771)"><path style="stroke:none" d="M 0.984375 0 L 0.984375 -8.25 L 2.109375 -8.25 L 2.109375 -0.921875 L 6.28125 -0.921875 L 6.28125 0 Z M 0.984375 0 "/></g><g transform="translate(195.832023, 269.693771)"><path style="stroke:none" d="M 6.84375 0 L 5.890625 -2.421875 L 2.140625 -2.421875 L 1.1875 0 L 0.03125 0 L 3.390625 -8.25 L 4.671875 -8.25 L 7.984375 0 Z M 4.015625 -7.40625 L 3.96875 -7.25 C 3.863281 -6.925781 3.71875 -6.507812 3.53125 -6 L 2.46875 -3.28125 L 5.5625 -3.28125 L 4.5 -6.015625 C 4.394531 -6.285156 4.285156 -6.585938 4.171875 -6.921875 Z M 4.015625 -7.40625 "/></g></g></g></svg>